# xmcd
#
# Track frame offsets:
#	150
#	10882
#	36792
#	46430
#	67259
#	79990
#	90187
#	96913
#	113675
#	126935
#	138334
#
# Disc length: 2165 seconds
#
# Revision: 1
# Processed by: cddbd v1.5.2PL0 Copyright (c) Steve Scherf et al.
# Submitted via: audiograbber 1.83.01
#
DISCID=8f08730b
DTITLE=Tim Hardin - 4
DYEAR=1968
DGENRE=Blues
TTITLE0=Airmobile
TTITLE1=Whiskey, Whiskey
TTITLE2=Seventh Son
TTITLE3=How Long
TTITLE4=Danville Dame
TTITLE5=Ain't Gonna Do Without (Part I)
TTITLE6=Ain't Gonna Do Without (PartII)
TTITLE7=House Of The Rising Sun
TTITLE8=Bo Diddley
TTITLE9=I Can't Slow Down
TTITLE10=Hello Baby
EXTD=
EXTT0=
EXTT1=
EXTT2=
EXTT3=
EXTT4=
EXTT5=
EXTT6=
EXTT7=
EXTT8=
EXTT9=
EXTT10=
PLAYORDER=
